<mxfile host="app.diagrams.net" modified="2022-03-15T12:48:04.374Z" agent="5.0 (Windows NT 10.0; Win64; x64) AppleWebKit/537.36 (KHTML, like Gecko) Chrome/99.0.4844.51 Safari/537.36" etag="KAzsLgDAxR5tsbZSnoyG" version="17.1.2" type="github">
  <diagram id="O3vF5IVw8UJ3JbansQLu" name="Page-1">
    <mxGraphModel dx="762" dy="430" grid="1" gridSize="10" guides="1" tooltips="1" connect="1" arrows="1" fold="1" page="1" pageScale="1" pageWidth="827" pageHeight="1169" math="0" shadow="0">
      <root>
        <mxCell id="0" />
        <mxCell id="1" parent="0" />
        <mxCell id="Pq5Aq_vtpTfU1EQHM9O4-28" style="edgeStyle=orthogonalEdgeStyle;rounded=0;orthogonalLoop=1;jettySize=auto;html=1;exitX=0.5;exitY=1;exitDx=0;exitDy=0;entryX=0.5;entryY=0;entryDx=0;entryDy=0;" edge="1" parent="1" source="Pq5Aq_vtpTfU1EQHM9O4-11" target="Pq5Aq_vtpTfU1EQHM9O4-15">
          <mxGeometry relative="1" as="geometry" />
        </mxCell>
        <mxCell id="Pq5Aq_vtpTfU1EQHM9O4-11" value="" style="rounded=0;whiteSpace=wrap;html=1;" vertex="1" parent="1">
          <mxGeometry x="170" y="110" width="90" height="110" as="geometry" />
        </mxCell>
        <mxCell id="Pq5Aq_vtpTfU1EQHM9O4-29" style="edgeStyle=orthogonalEdgeStyle;rounded=0;orthogonalLoop=1;jettySize=auto;html=1;exitX=0.5;exitY=1;exitDx=0;exitDy=0;" edge="1" parent="1" source="Pq5Aq_vtpTfU1EQHM9O4-12" target="Pq5Aq_vtpTfU1EQHM9O4-16">
          <mxGeometry relative="1" as="geometry" />
        </mxCell>
        <mxCell id="Pq5Aq_vtpTfU1EQHM9O4-12" value="" style="whiteSpace=wrap;html=1;aspect=fixed;" vertex="1" parent="1">
          <mxGeometry x="270" y="110" width="110" height="110" as="geometry" />
        </mxCell>
        <mxCell id="Pq5Aq_vtpTfU1EQHM9O4-30" style="edgeStyle=orthogonalEdgeStyle;rounded=0;orthogonalLoop=1;jettySize=auto;html=1;exitX=0.5;exitY=1;exitDx=0;exitDy=0;" edge="1" parent="1" source="Pq5Aq_vtpTfU1EQHM9O4-13" target="Pq5Aq_vtpTfU1EQHM9O4-17">
          <mxGeometry relative="1" as="geometry" />
        </mxCell>
        <mxCell id="Pq5Aq_vtpTfU1EQHM9O4-13" value="" style="whiteSpace=wrap;html=1;aspect=fixed;" vertex="1" parent="1">
          <mxGeometry x="400" y="111" width="109" height="109" as="geometry" />
        </mxCell>
        <mxCell id="Pq5Aq_vtpTfU1EQHM9O4-31" style="edgeStyle=orthogonalEdgeStyle;rounded=0;orthogonalLoop=1;jettySize=auto;html=1;exitX=0.5;exitY=1;exitDx=0;exitDy=0;" edge="1" parent="1" source="Pq5Aq_vtpTfU1EQHM9O4-14" target="Pq5Aq_vtpTfU1EQHM9O4-18">
          <mxGeometry relative="1" as="geometry" />
        </mxCell>
        <mxCell id="Pq5Aq_vtpTfU1EQHM9O4-14" value="" style="whiteSpace=wrap;html=1;aspect=fixed;" vertex="1" parent="1">
          <mxGeometry x="520" y="110" width="100" height="100" as="geometry" />
        </mxCell>
        <mxCell id="Pq5Aq_vtpTfU1EQHM9O4-15" value="" style="whiteSpace=wrap;html=1;aspect=fixed;" vertex="1" parent="1">
          <mxGeometry x="175" y="270" width="80" height="80" as="geometry" />
        </mxCell>
        <mxCell id="Pq5Aq_vtpTfU1EQHM9O4-16" value="" style="whiteSpace=wrap;html=1;aspect=fixed;" vertex="1" parent="1">
          <mxGeometry x="280" y="270" width="90" height="90" as="geometry" />
        </mxCell>
        <mxCell id="Pq5Aq_vtpTfU1EQHM9O4-17" value="" style="whiteSpace=wrap;html=1;aspect=fixed;" vertex="1" parent="1">
          <mxGeometry x="409.5" y="280" width="90" height="90" as="geometry" />
        </mxCell>
        <mxCell id="Pq5Aq_vtpTfU1EQHM9O4-18" value="" style="whiteSpace=wrap;html=1;aspect=fixed;" vertex="1" parent="1">
          <mxGeometry x="525" y="280" width="90" height="90" as="geometry" />
        </mxCell>
        <mxCell id="Pq5Aq_vtpTfU1EQHM9O4-23" style="edgeStyle=orthogonalEdgeStyle;rounded=0;orthogonalLoop=1;jettySize=auto;html=1;exitX=0.5;exitY=1;exitDx=0;exitDy=0;entryX=0.5;entryY=0;entryDx=0;entryDy=0;" edge="1" parent="1" source="Pq5Aq_vtpTfU1EQHM9O4-22" target="Pq5Aq_vtpTfU1EQHM9O4-11">
          <mxGeometry relative="1" as="geometry" />
        </mxCell>
        <mxCell id="Pq5Aq_vtpTfU1EQHM9O4-25" style="edgeStyle=orthogonalEdgeStyle;rounded=0;orthogonalLoop=1;jettySize=auto;html=1;exitX=0.5;exitY=1;exitDx=0;exitDy=0;entryX=0.5;entryY=0;entryDx=0;entryDy=0;" edge="1" parent="1" source="Pq5Aq_vtpTfU1EQHM9O4-22" target="Pq5Aq_vtpTfU1EQHM9O4-12">
          <mxGeometry relative="1" as="geometry" />
        </mxCell>
        <mxCell id="Pq5Aq_vtpTfU1EQHM9O4-26" style="edgeStyle=orthogonalEdgeStyle;rounded=0;orthogonalLoop=1;jettySize=auto;html=1;exitX=0.5;exitY=1;exitDx=0;exitDy=0;" edge="1" parent="1" source="Pq5Aq_vtpTfU1EQHM9O4-22" target="Pq5Aq_vtpTfU1EQHM9O4-13">
          <mxGeometry relative="1" as="geometry" />
        </mxCell>
        <mxCell id="Pq5Aq_vtpTfU1EQHM9O4-27" style="edgeStyle=orthogonalEdgeStyle;rounded=0;orthogonalLoop=1;jettySize=auto;html=1;exitX=0.5;exitY=1;exitDx=0;exitDy=0;entryX=0.5;entryY=0;entryDx=0;entryDy=0;" edge="1" parent="1" source="Pq5Aq_vtpTfU1EQHM9O4-22" target="Pq5Aq_vtpTfU1EQHM9O4-14">
          <mxGeometry relative="1" as="geometry" />
        </mxCell>
        <mxCell id="Pq5Aq_vtpTfU1EQHM9O4-22" value="" style="rounded=1;whiteSpace=wrap;html=1;" vertex="1" parent="1">
          <mxGeometry x="320" y="10" width="120" height="60" as="geometry" />
        </mxCell>
      </root>
    </mxGraphModel>
  </diagram>
</mxfile>
